<svg xmlns="http://www.w3.org/2000/svg" xmlns:xlink="http://www.w3.org/1999/xlink" version="1.1" viewBox="0 0 1024 1024"
  preserveAspectRatio="xMidYMid meet" style="enable-background:new 0 0 1024 1024;">
  <g fill="#000000">
    <path
      d="M710.1,874.5H254.8c-23.3,0-42.3-19-42.3-42.3V556.7l32.5,30.1l421.2-55.6c22-2.9,43.2,3.5,59.7,17.9   c16.8,14.8,26.5,36.4,26.5,59.4v223.8C752.4,855.6,733.4,874.5,710.1,874.5z M252.5,626.2v206.1c0,1.2,1,2.3,2.3,2.3h455.4   c1.2,0,2.3-1,2.3-2.3V608.5c0-11.4-4.7-22.1-12.9-29.3c-7.7-6.8-17.7-9.7-28.1-8.4L252.5,626.2z" />
    <path
      d="M204,588.8C203.9,588.7,203.9,588.7,204,588.8L204,588.8c-0.1-0.1-0.1-0.2-0.1-0.3L72.4,241.5   c-3.2-8.6-3-17.9,0.8-26.2c3.8-8.3,10.6-14.7,19.1-18l98.9-37.4l134.5,355.7l-53.5,7.1c-11.7,1.6-21.9,8.3-28,18.4   c-6,10.1-7.1,22.2-3,33.2l0.1,0.3L204,588.8z M111.9,232.7l105.2,277.7c12.5-15,30.1-24.8,49.9-27.4l3.5-0.5L167.9,211.5   L111.9,232.7z" />
    <path
      d="M226.4,366.1l-72.6-192.1l53.3-20c17.8-6.7,37.1-6,54.4,1.8c17.3,7.8,30.5,22,37.1,39.7l22.2,59.2   c13.8,36.7-4.9,77.7-41.5,91.5h0L226.4,366.1z M205.4,197.4l44.3,117.2l15.5-5.8h0c16-6,24.1-23.9,18.1-40l-22.2-59.2   c-2.9-7.8-8.7-13.9-16.2-17.4c-7.6-3.4-16-3.7-23.8-0.8L205.4,197.4z" />
    <path
      d="M284.6,520l-72.3-191.3l46.3-17.4c19.5-7.3,40.7-6.6,59.7,2c19,8.6,33.5,24.1,40.8,43.6l55.2,147L300.2,519   L284.6,520z M263.9,352.1l47.3,125.1l48-6.3L321.7,371c-3.6-9.5-10.6-17.1-19.9-21.3c-9.3-4.2-19.6-4.5-29.1-1L263.9,352.1z" />
    <path
      d="M244,627c-9.2,0-18.2-3.5-25-9.8c-4.1-3.8-7.4-8.6-9.5-13.9l-5.5-14.4c-8.6-22.6-6.5-47.4,5.9-68.1   c12.4-20.7,33.2-34.4,57.1-37.6l393.4-51.9c36.9-4.9,74.4,3.6,105.6,23.9l44.8,29.1c9.7,6.3,16.3,15.9,18.7,27.2   c2.4,11.3,0.2,22.8-6.1,32.5l-29.3,45c-6.3,9.7-16,16.3-27.2,18.7c-11.3,2.4-22.8,0.2-32.5-6.1l-38.6-25.1   c-7.2-4.7-15.9-6.6-24.4-5.5l-422.6,55.8C247.2,626.9,245.6,627,244,627z M680.8,469.8c-5.1,0-10.1,0.3-15.2,1l-393.4,51.9   c-11.7,1.6-21.9,8.3-28,18.4c-6.1,10.2-7.1,22.3-2.9,33.4l4.6,12.2l420.2-55.5c18-2.4,36.2,1.8,51.4,11.6l38.6,25.1   c0.9,0.6,1.8,0.6,2.3,0.4c0.6-0.1,1.4-0.5,2-1.4l29.3-45c0.6-0.9,0.6-1.8,0.4-2.3c-0.1-0.6-0.5-1.4-1.4-2l-44.8-29.1   C725.2,476.2,703.2,469.8,680.8,469.8z" />
    <path
      d="M912.4,811.6c-5.4,0-10.8-1.3-15.7-4L712.4,709V580.1L915,688.5c35.7,19.1,49.2,63.6,30.1,99.3l-3.2,6.1   c-4.2,7.9-11.2,13.6-19.8,16.2C918.9,811.1,915.7,811.6,912.4,811.6z M752.4,685l157.4,84.2l0.1-0.2c8.7-16.2,2.5-36.5-13.7-45.2   l-143.8-76.9V685z" />
    <path
      d="M635.1,699.4c-25.8,0-46.8-21-46.8-46.8c0-25.8,21-46.8,46.8-46.8s46.8,21,46.8,46.8   C681.9,678.4,660.9,699.4,635.1,699.4z M635.1,645.9c-3.7,0-6.8,3-6.8,6.8s3,6.8,6.8,6.8s6.8-3,6.8-6.8S638.9,645.9,635.1,645.9z" />
    <rect x="773.7" y="720.2" transform="matrix(0.3461 0.9382 -0.9382 0.3461 1255.8776 -230.9982)" width="40"
      height="130.7" />
  </g>
</svg>
